<svg version="1.1" id="logo-ASJ" xmlns="http://www.w3.org/2000/svg" x="0" y="0" viewBox="0 0 289.289 200" xml:space="preserve"><style>.st0{fill:none}.st1{fill:#fe0}.st3{fill:#e30613}.st4{fill:#ec1c24}.st6{fill:#fff}</style><path class="st0" d="M252.828 77.744h-22.002l-4.507 18.3h23.847c7.788 0 11.318-5.242 11.87-8.997.682-4.624-2.649-9.303-9.208-9.303zM257.774 47.07h-19.863l-4.135 16.886h20.763c7.117 0 10.035-3.768 10.575-8.133.504-4.062-2.877-8.753-7.34-8.753z"/><path class="st0" d="M252.828 77.744h-22.002l-4.507 18.3h23.847c7.788 0 11.318-5.242 11.87-8.997.682-4.624-2.649-9.303-9.208-9.303zM257.774 47.07h-19.863l-4.135 16.886h20.763c7.117 0 10.035-3.768 10.575-8.133.504-4.062-2.877-8.753-7.34-8.753z"/><path class="st1" d="M272.071 71.257c10.092-2.637 15.34-10.905 15.34-20.568 0-9.83-5.864-19.147-23.174-19.147h-43.746l-18.917 81.427h48.642c17.855 0 31.407-8.11 31.407-24.408.001-6.127-2.079-13.649-9.552-17.304zm-10.034 15.79c-.552 3.755-4.082 8.997-11.87 8.997H226.32l4.507-18.3h22.002c6.558 0 9.889 4.679 9.208 9.303zm3.077-31.224c-.54 4.365-3.458 8.133-10.575 8.133h-20.763l4.135-16.886h19.863c4.463 0 7.844 4.691 7.34 8.753z"/><path d="m64.583 112.969 50.79-81.38h21.11l17.406 81.38h-23.742l-2.235-13.04H95.313l-8.158 13.04H64.583zm39.982-27.818 16.746-27.364 4.501 27.364h-21.247z" fill-rule="evenodd" clip-rule="evenodd" fill="#fe0"/><path class="st3" d="M0 114.838V29.709h86.313v37.592l-29.644 47.535z"/><path class="st1" d="m55.091 60.517.001-26.97H31.246v26.97H3.909v23.508h27.337v26.944h23.842l.001-26.944h15.935L82.41 66.031v-5.514z"/><path class="st3" d="M48.643 56.677c-1.51-1.682-3.347-2.935-5.744-2.935-4.608 0-8.198 2.632-8.198 7.44 0 7.9 11.56 16.562 11.56 22.213 0 2.595-2.01 4.193-4.467 4.193-2.05 0-4.856-.951-4.856-6.637h-2.209v9.335h2.38v-2.334c1.859 1.909 3.522 2.847 5.75 2.847 4.151 0 8.786-2.175 8.786-8.665 0-7.978-11.612-16.83-11.612-21.829 0-2.175 1.394-3.589 4.157-3.589 2.479 0 4.63 2.407 4.63 6.595h2.09v-9.303h-2.266v2.669z"/><path class="st4" d="M122.382 52.422 101.214 87.01h26.855l-5.687-34.588zm-2.155 10.969 3.256 19.766h-15.328l12.072-19.766z"/><path class="st0" d="m116.516 33.543-48.344 77.455h17.982l8.177-13.026h35.2l2.234 13.034 19.694.008-16.478-77.471z"/><path class="st3" d="M155.808 112.313 138.14 29.709h-23.812l-53.133 85.133H88.34l8.156-13.016h29.733l2.233 13.016h26.263v.004h2.775v-2.533h-1.692zm-24.043-1.307-2.235-13.034H94.331l-8.178 13.026H68.172l48.345-77.456h18.465l16.478 77.472-19.695-.008z"/><path class="st4" d="M252.828 75.867h-23.5L223.9 97.923h26.267c8.374 0 13.002-5.5 13.757-10.606.415-2.844-.415-5.697-2.282-7.823-2.054-2.339-5.185-3.627-8.814-3.627m7.328 10.912c-.377 2.555-2.932 7.297-9.967 7.297h-21.315l3.508-14.375h20.421c2.546 0 4.6.808 5.937 2.332 1.144 1.302 1.674 2.979 1.416 4.746"/><path class="st4" d="M276.302 71.739c8.1-3.621 12.974-11.379 12.974-21.059 0-5.921-1.954-10.964-5.657-14.594-4.354-4.268-10.887-6.394-19.418-6.394h-45.266l-19.198 82.617h-1.954l-.491 2.529 52.885-.002c20.548 0 33.312-10.072 33.312-26.287.002-7.155-2.574-13.081-7.187-16.81zm-26.114 39.259h-46.253l18.034-77.458h42.233c18.506 0 21.267 10.689 21.267 17.14 0 9.462-5.202 16.473-13.922 18.75l-4.89 1.279 4.533 2.218c7.389 3.615 8.493 11.339 8.493 15.622 0 14.107-11.022 22.449-29.495 22.449z"/><path class="st4" d="M267.007 56.052c.33-2.678-.642-5.575-2.596-7.754-1.801-2.001-4.157-3.103-6.636-3.103h-21.361l-5.055 20.637h23.18c7.148 0 11.693-3.563 12.468-9.78m-27.533-7.008h18.3c1.375.072 2.719.652 3.786 1.84 1.224 1.365 1.865 3.111 1.665 4.71-.534 4.302-3.42 6.388-8.646 6.388h-18.28l3.175-12.938z"/><path class="st1" d="M185.038 43.957c7.739 0 14.22 3.162 14.22 8.677h21.857c1.418-14.847-17.237-25.145-34.029-25.145-21.506 0-37.74 12.178-37.74 26.893 0 15.071 6.293 21.227 26.364 26.022 8.956 2.137 15.819 3.467 15.819 9.889 0 5.963-5.029 10.718-11.91 10.718-11.376 0-16.23-6.906-16.23-15.614h-21.953c-1.716 20.574 14.949 31.662 36.812 31.662 17.009 0 37.843-9.036 37.843-30.871 0-14.982-13.588-20.397-24.654-22.518-10.796-2.071-19.281-3.695-19.281-10.778.001-5.773 5.743-8.935 12.882-8.935z"/><path class="st3" d="M178.249 118.936c-13.477 0-24.676-4.044-31.539-11.387-5.425-5.808-7.903-13.521-7.172-22.304l.175-2.084h25.578v2.237c0 5.129 1.863 13.737 14.329 13.737 5.703 0 10.005-3.802 10.005-8.841 0-4.448-4.517-5.729-13.177-7.782l-1.186-.284c-10.925-2.609-17.386-5.495-21.605-9.652-4.298-4.232-6.213-9.844-6.213-18.192 0-16.134 17.414-28.771 39.643-28.771 11.745 0 23.659 4.685 30.351 11.934 4.171 4.517 6.096 9.793 5.576 15.264l-.163 1.701h-25.496v-1.877c0-4.674-6.382-6.799-12.315-6.799-5.061 0-10.978 1.848-10.978 7.057 0 5.276 6.41 6.761 17.734 8.934 17.144 3.286 26.201 11.71 26.201 24.361 0 10.519-4.62 19.221-13.364 25.17-7.084 4.815-16.701 7.578-26.384 7.578m-35.015-31.465c-.226 7.061 1.879 12.828 6.277 17.533 6.134 6.563 16.337 10.18 28.738 10.18 17.307 0 35.938-9.075 35.938-28.996 0-10.778-7.774-17.735-23.111-20.676-11.179-2.143-20.824-3.992-20.824-12.62 0-6.468 5.943-10.811 14.786-10.811 8.507 0 14.713 3.382 15.912 8.577h18.336c-.072-3.814-1.635-7.302-4.666-10.582-5.911-6.405-16.977-10.709-27.534-10.709-9.904 0-19.066 2.685-25.806 7.565-6.469 4.681-10.029 10.879-10.029 17.451 0 14.155 5.588 19.582 24.908 24.195l1.178.281c8.638 2.049 16.095 3.819 16.095 11.434 0 7.063-6.068 12.595-13.813 12.595-10.69 0-17.325-6.062-18.067-15.88h-18.318v.463z"/><path d="M89.876 118.425c5.518-1.794 9.262-6.138 11.175-6.71 11.109-3.397 34.367-11.117 60.149-15.068 25.975-4.175 43.844-6.263 58.836-.524 2.435.159 2.537 8.642.928 10.045-1.722 1.283-1.166 7.997.636 8.926 1.75 1.1-.616 4.195.04 5.981.685 1.79 2.584 2.378 1.76 5.631l-1.122 4.169.771 3.879s.514 2.884-1.43 4.266c-1.899 1.323 1.436 2.358 1.901 4.366.344 1.986-.105 5.385-5.597 3.697-8.037-3.371-97.335 3.357-102.6 9.054-10.023 2.946-8.619-2.537-10.14-3.035-1.521-.566-5.383.576-6.843 1.698-1.512 1.241-7.731 2.344-6.251-2.966 1.603-5.355.683-5.758-1.599-6.491-2.282-.729-.818-4.813.576-5.303 1.523-.536.05-6.851-1.978-7.617-2.02-.892-2.334-12.115.788-13.998" fill="#0ba245"/><path class="st6" d="m126.275 110.784 10.343-.979 8.599 33.203-10.341.981-1.047-4.761-11.155 1.055-2.165 5.067-10.728 1.017 16.494-35.583zm-.473 21.913 6.557-.622-2.131-9.995-.095.012-4.331 10.605zM166.138 115.783c-.085-1.373-.648-2.173-1.468-2.671-.822-.493-1.943-.576-3.14-.463-1.77.165-4.017.904-3.802 3.123.25 2.55 5.387 2.203 8.851 3.069 6.14 1.516 8.466 4.535 8.855 8.549.794 8.118-6.831 12.7-14.252 13.403-7.854.741-15.287-2.125-15.69-10.76l10.198-.965c.179 1.839.719 2.932 1.662 3.7.985.668 2.239.646 3.963.485 2.058-.197 4.495-1.476 4.28-3.69-.24-2.459-3.768-2.457-8.658-3.568-4.302-.971-8.535-2.767-9.081-8.384-.741-7.602 6.39-11.803 13.282-12.454 7.28-.687 14.101 1.38 14.72 9.709l-9.72.917zM204.063 126.573c-.681 7.88-4.571 12.105-12.951 12.901-8.619.816-11.697-3.516-12.113-7.762-.157-1.605-.077-4.283.264-6.223l9.433-.892c-.07 1.246-.487 3.43-.369 4.656.143 1.466 1.049 2.286 2.483 2.149 1.867-.179 2.435-1.279 2.604-3.013l1.972-16.989-13.694 1.297.874-7.246 24.191-2.29-2.694 23.412z"/><path class="st3" d="M6.024.482h3.961l5.929 16.52H12.12l-1.106-3.398H4.843l-1.134 3.398H.044L6.024.482zm-.228 10.275h4.29L7.969 4.259l-2.173 6.498zM24.165 4.5l.278.017v3.271a9.894 9.894 0 0 0-.544-.045c-.163-.006-.288-.012-.389-.012-1.301 0-2.175.42-2.624 1.257-.25.471-.375 1.196-.375 2.173v5.84H17.25V4.786h3.093v2.129c.499-.813.936-1.372 1.305-1.669.604-.501 1.392-.752 2.364-.752.06 0 .112.003.153.006M36.33 6.255c.927 1.157 1.39 2.652 1.39 4.48 0 1.9-.457 3.471-1.371 4.717-.914 1.248-2.191 1.872-3.828 1.872-1.029 0-1.855-.201-2.479-.604-.373-.238-.777-.657-1.21-1.256v1.537h-3.196V.506h3.24v5.871c.413-.567.866-1.001 1.363-1.299.588-.373 1.337-.561 2.241-.561 1.643 0 2.924.578 3.85 1.738m-2.708 7.44c.469-.665.701-1.539.701-2.622 0-.865-.117-1.582-.348-2.153-.433-1.075-1.233-1.613-2.401-1.613-1.186 0-2.002.527-2.443 1.58-.228.56-.342 1.286-.342 2.175 0 1.046.235 1.913.707 2.599.473.686 1.198 1.03 2.165 1.03.841 0 1.496-.332 1.961-.996M47.796 5.033c.866.382 1.577.983 2.141 1.806.508.726.836 1.568.987 2.527.087.561.123 1.37.107 2.424H42.01c.048 1.225.481 2.084 1.291 2.577.499.306 1.092.46 1.788.46.739 0 1.337-.187 1.801-.562.248-.201.473-.482.666-.839h3.305c-.087.726-.487 1.461-1.2 2.209-1.11 1.189-2.666 1.782-4.66 1.782-1.651 0-3.104-.502-4.364-1.504-1.261-1.004-1.893-2.632-1.893-4.89 0-2.116.572-3.737 1.708-4.866 1.136-1.128 2.614-1.695 4.429-1.695 1.082-.002 2.051.191 2.915.571m-4.844 2.759c-.461.465-.747 1.097-.862 1.89h5.58c-.06-.847-.348-1.491-.866-1.931-.515-.439-1.156-.658-1.919-.658-.831.001-1.476.234-1.933.699M55.843 3.329H52.56V.383h3.283v2.946zM52.56 4.786h3.283v12.216H52.56V4.786zM57.182 7.174V4.896h1.73V1.491h3.204v3.406h2.012v2.277h-2.012v6.453c0 .502.065.814.195.937.127.124.522.184 1.18.184.101 0 .205 0 .312-.005.111-.004.22-.009.326-.018v2.386l-1.535.058c-1.53.051-2.574-.21-3.136-.786-.363-.366-.544-.931-.544-1.69V7.174h-1.732zM73.69 5.033c.864.382 1.579.983 2.139 1.806.509.726.838 1.568.991 2.527.085.561.123 1.37.105 2.424h-9.022c.05 1.225.481 2.084 1.293 2.577.497.306 1.091.46 1.788.46.737 0 1.339-.187 1.798-.562.252-.201.475-.482.666-.839h3.307c-.085.726-.485 1.461-1.2 2.209-1.108 1.189-2.662 1.782-4.662 1.782-1.646 0-3.101-.502-4.362-1.504-1.259-1.004-1.893-2.632-1.893-4.89 0-2.116.572-3.737 1.71-4.866 1.136-1.128 2.612-1.695 4.429-1.695 1.077-.002 2.051.191 2.913.571m-4.845 2.759c-.459.465-.747 1.097-.862 1.89h5.579c-.06-.847-.346-1.491-.864-1.931-.514-.439-1.156-.658-1.921-.658-.829.001-1.473.234-1.932.699M85.3 4.5l.278.017v3.271a9.585 9.585 0 0 0-.544-.045c-.157-.006-.288-.012-.385-.012-1.303 0-2.181.42-2.626 1.257-.252.471-.377 1.196-.377 2.173v5.84h-3.26V4.786h3.091v2.129c.502-.813.935-1.372 1.307-1.669.606-.501 1.395-.752 2.364-.752.058 0 .11.003.152.006M85.937 9.09h6.344v3.022h-6.344zM97.283 11.903c.107.754.322 1.316.64 1.69.576.68 1.571 1.021 2.979 1.021.844 0 1.528-.091 2.056-.27.997-.343 1.496-.981 1.496-1.916 0-.545-.244-.967-.735-1.266-.487-.292-1.263-.549-2.324-.774l-1.813-.39c-1.782-.388-3.007-.812-3.673-1.268-1.13-.763-1.696-1.952-1.696-3.575 0-1.478.552-2.707 1.654-3.686C96.973.491 98.596 0 100.737 0c1.786 0 3.311.462 4.572 1.384 1.263.925 1.923 2.262 1.984 4.018h-3.363c-.066-.993-.513-1.699-1.351-2.118-.562-.274-1.257-.414-2.087-.414-.924 0-1.661.179-2.213.539-.552.358-.826.859-.826 1.5 0 .592.268 1.032.812 1.324.354.193 1.092.423 2.227.683l2.94.683c1.289.298 2.254.698 2.898 1.2.997.777 1.498 1.9 1.498 3.371 0 1.512-.59 2.765-1.776 3.761-1.184.997-2.852 1.497-5.013 1.497-2.205 0-3.941-.491-5.202-1.475-1.263-.981-1.897-2.334-1.897-4.049h3.343zM114.693 9.573c.6-.076 1.033-.17 1.293-.281.463-.196.697-.499.697-.911 0-.499-.179-.845-.536-1.035-.358-.19-.88-.286-1.571-.286-.777 0-1.325.188-1.649.561-.23.275-.383.649-.461 1.12h-3.125c.07-1.069.372-1.945.912-2.634.86-1.075 2.336-1.614 4.431-1.614 1.36 0 2.57.267 3.627.798 1.061.529 1.589 1.531 1.589 3.002v5.602c0 .388.006.859.024 1.412.022.419.083.703.191.85.107.151.264.275.477.372V17h-3.524a4.004 4.004 0 0 1-.205-.695 7.8 7.8 0 0 1-.089-.74 6.728 6.728 0 0 1-1.555 1.221c-.699.394-1.494.593-2.378.593-1.128 0-2.058-.315-2.795-.947-.737-.632-1.102-1.525-1.102-2.682 0-1.502.59-2.589 1.772-3.261.651-.368 1.605-.63 2.864-.785l1.113-.131zm1.978 1.489a3.775 3.775 0 0 1-.626.308 5.77 5.77 0 0 1-.87.219l-.737.133c-.693.118-1.188.266-1.492.436-.509.292-.763.743-.763 1.358 0 .545.155.94.467 1.183.312.241.689.363 1.136.363.707 0 1.359-.202 1.956-.605.598-.405.906-1.14.928-2.208v-1.187zM137.744 4.832c.53.21 1.013.575 1.444 1.098.348.425.584.95.703 1.567.075.412.115 1.013.115 1.807l-.022 7.699h-3.319V9.224c0-.464-.075-.845-.228-1.144-.29-.566-.82-.852-1.591-.852-.894 0-1.512.369-1.851 1.1-.175.389-.264.856-.264 1.4v7.274h-3.26V9.728c0-.726-.075-1.25-.226-1.582-.274-.59-.808-.885-1.603-.885-.924 0-1.549.295-1.865.885-.175.338-.26.839-.26 1.504v7.352h-3.285V4.809h3.148V6.59c.403-.636.781-1.086 1.138-1.356.628-.477 1.44-.717 2.443-.717.943 0 1.708.204 2.294.615.469.383.824.87 1.069 1.469.425-.717.949-1.245 1.579-1.579.666-.338 1.408-.505 2.231-.505.541 0 1.08.105 1.61.315M147.425 9.573c.604-.076 1.035-.17 1.293-.281.463-.196.699-.499.699-.911 0-.499-.181-.845-.534-1.035-.358-.19-.882-.286-1.575-.286-.773 0-1.323.188-1.649.561-.228.275-.381.649-.459 1.12h-3.126c.07-1.069.373-1.945.912-2.634.862-1.075 2.338-1.614 4.431-1.614 1.361 0 2.572.267 3.629.798 1.06.529 1.587 1.531 1.587 3.002v5.602c0 .388.006.859.022 1.412.024.419.089.703.193.85.109.151.266.275.481.372V17h-3.526a3.525 3.525 0 0 1-.203-.695 6.897 6.897 0 0 1-.091-.74 6.781 6.781 0 0 1-1.557 1.221c-.699.394-1.492.593-2.376.593-1.128 0-2.06-.315-2.797-.947-.735-.632-1.102-1.525-1.102-2.682 0-1.502.592-2.589 1.776-3.261.647-.368 1.601-.63 2.86-.785l1.112-.131zm1.981 1.489a3.754 3.754 0 0 1-.628.308c-.211.077-.503.15-.868.219l-.739.133c-.691.118-1.188.266-1.492.436-.511.292-.765.743-.765 1.358 0 .545.157.94.469 1.183.312.241.693.363 1.136.363.709 0 1.361-.202 1.956-.605.596-.405.906-1.14.93-2.208v-1.187zM161.889 4.5l.28.017v3.271a9.642 9.642 0 0 0-.546-.045c-.157-.006-.286-.012-.389-.012-1.301 0-2.175.42-2.622 1.257-.25.471-.378 1.196-.378 2.173v5.84h-3.259V4.786h3.091v2.129c.503-.813.936-1.372 1.307-1.669.608-.501 1.396-.752 2.364-.752.059 0 .111.003.152.006M166.732 3.329h-3.281V.383h3.281v2.946zm-3.281 1.457h3.281v12.216h-3.281V4.786zM168.073 7.174V4.896h1.726V1.491h3.204v3.406h2.012v2.277h-2.012v6.453c0 .502.065.814.197.937.125.124.52.184 1.18.184.099 0 .203 0 .314-.005.107-.004.217-.009.322-.018v2.386l-1.533.058c-1.531.051-2.576-.21-3.136-.786-.361-.366-.546-.931-.546-1.69V7.174h-1.728zM184.579 5.033c.866.382 1.581.983 2.141 1.806.508.726.836 1.568.987 2.527.087.561.125 1.37.107 2.424h-9.022c.05 1.225.479 2.084 1.291 2.577.499.306 1.092.46 1.788.46.741 0 1.339-.187 1.802-.562a2.73 2.73 0 0 0 .665-.839h3.307c-.089.726-.489 1.461-1.2 2.209-1.112 1.189-2.666 1.782-4.662 1.782-1.651 0-3.105-.502-4.364-1.504-1.261-1.004-1.893-2.632-1.893-4.89 0-2.116.572-3.737 1.708-4.866 1.136-1.128 2.614-1.695 4.431-1.695 1.081-.002 2.05.191 2.914.571m-4.845 2.759c-.461.465-.747 1.097-.862 1.89h5.58c-.06-.847-.348-1.491-.866-1.931-.514-.439-1.152-.658-1.919-.658-.83.001-1.474.234-1.933.699M196.191 4.5l.276.017v3.271a9.212 9.212 0 0 0-.546-.045c-.157-.006-.286-.012-.385-.012-1.303 0-2.177.42-2.626 1.257-.248.471-.373 1.196-.373 2.173v5.84h-3.261V4.786h3.089v2.129c.503-.813.938-1.372 1.309-1.669.608-.501 1.392-.752 2.362-.752.062 0 .111.003.155.006M196.83 9.09h6.338v3.022h-6.338zM208.206 10.735v.383c.026 1.275.159 2.174.399 2.694.236.518.747.78 1.533.78.775 0 1.287-.284 1.537-.851.149-.338.225-.905.225-1.704V.482h3.496V11.98c0 1.403-.236 2.519-.719 3.34-.816 1.389-2.284 2.085-4.411 2.085s-3.554-.561-4.278-1.687c-.727-1.122-1.089-2.657-1.089-4.598v-.383h3.307zM221.423 4.786v7.361c0 .697.08 1.219.248 1.571.294.621.87.93 1.728.93 1.104 0 1.857-.442 2.264-1.324.209-.477.316-1.109.316-1.894V4.786h3.283v12.216h-3.146v-1.727c-.032.037-.105.15-.227.338a2.298 2.298 0 0 1-.431.49c-.506.451-.995.757-1.47.922-.471.162-1.027.247-1.659.247-1.827 0-3.063-.653-3.695-1.951-.358-.717-.534-1.775-.534-3.172V4.786h3.323zM238.01 4.775c.785.32 1.42.91 1.905 1.769V4.786h3.162v11.586c0 1.576-.27 2.764-.808 3.563-.926 1.376-2.7 2.062-5.319 2.062-1.581 0-2.876-.306-3.875-.919-1.001-.612-1.553-1.528-1.659-2.745h3.524c.092.374.238.644.443.804.348.294.934.44 1.76.44 1.166 0 1.949-.385 2.342-1.153.258-.493.385-1.325.385-2.49v-.783c-.312.523-.642.913-.999 1.177-.644.484-1.482.725-2.515.725-1.589 0-2.858-.549-3.81-1.653-.954-1.099-1.428-2.592-1.428-4.473 0-1.816.457-3.343 1.375-4.58.916-1.235 2.215-1.854 3.893-1.854.621.001 1.164.094 1.624.282m1.105 8.756c.516-.562.779-1.46.779-2.693 0-1.157-.246-2.039-.741-2.646-.494-.604-1.158-.907-1.988-.907-1.13 0-1.909.527-2.34 1.578-.228.562-.342 1.253-.342 2.077 0 .708.121 1.338.363 1.894.435 1.029 1.222 1.545 2.354 1.545.753 0 1.391-.284 1.915-.848M253.788 5.033c.862.382 1.577.983 2.141 1.806.506.726.834 1.568.985 2.527.089.561.121 1.37.105 2.424h-9.024c.052 1.225.483 2.084 1.297 2.577.496.306 1.09.46 1.786.46.737 0 1.339-.187 1.802-.562a2.73 2.73 0 0 0 .665-.839h3.307c-.09.726-.489 1.461-1.204 2.209-1.108 1.189-2.662 1.782-4.662 1.782-1.647 0-3.101-.502-4.362-1.504-1.259-1.004-1.889-2.632-1.889-4.89 0-2.116.566-3.737 1.704-4.866 1.138-1.128 2.618-1.695 4.432-1.695 1.077-.002 2.051.191 2.917.571m-4.847 2.759c-.461.465-.745 1.097-.864 1.89h5.58c-.058-.847-.346-1.491-.862-1.931-.516-.439-1.156-.658-1.921-.658-.832.001-1.476.234-1.933.699M268.48 5.487c.81.66 1.216 1.757 1.216 3.288v8.226h-3.317V9.573c0-.645-.087-1.137-.26-1.481-.316-.629-.919-.942-1.805-.942-1.093 0-1.839.46-2.249 1.378-.209.485-.31 1.105-.31 1.859V17h-3.242V4.809h3.134V6.59c.417-.627.809-1.081 1.178-1.356.665-.493 1.505-.74 2.525-.74 1.277 0 2.318.333 3.13.993M278.805 4.982a3.996 3.996 0 0 1 1.422 1.35V.506h3.283v16.496h-3.148v-1.693c-.465.726-.987 1.249-1.581 1.579-.59.329-1.325.493-2.203.493-1.45 0-2.666-.575-3.655-1.732-.991-1.155-1.484-2.635-1.484-4.441 0-2.086.487-3.724 1.46-4.919.971-1.196 2.278-1.795 3.905-1.795.752 0 1.415.161 2.001.488m.797 8.702c.475-.671.717-1.542.717-2.611 0-1.495-.385-2.563-1.148-3.204a2.5 2.5 0 0 0-1.637-.584c-.949 0-1.645.354-2.088 1.06-.441.706-.664 1.582-.664 2.628 0 1.126.225 2.028.675 2.706.451.674 1.134 1.014 2.054 1.014.915 0 1.612-.337 2.091-1.009"/><path class="st0" d="M.02 0h289.269v157.005H.02z"/><path class="st3" d="M15.002 165.941c9.12 0 13.354 6.979 13.354 15.913 0 11.074-5.63 17.495-13.633 17.495H.02v-33.407h14.982zM6.86 193.579h6.933c4.606 0 7.444-4.281 7.444-11.26 0-6.328-1.954-10.609-7.398-10.609H6.86v21.869zM55.62 188.74H38.637c.233 4.048 2.14 6.049 5.816 6.049 1.814 0 3.676-.884 4.187-2.699h6.7c-1.442 5.025-5.537 7.91-10.888 7.91-8.189 0-12.33-4.606-12.33-13.493 0-7.305 4.141-12.563 11.818-12.563 6.188 0 11.679 3.536 11.679 13.633v1.163zm-6.7-4.234c-.326-3.257-2.233-5.211-5.072-5.211-2.978 0-4.653 1.815-5.025 5.211H48.92zM67.485 174.595v15.494c0 2.838 1.396 4.42 4.234 4.42 2.931 0 5.025-2.14 5.025-5.49v-14.424h6.514v24.753h-6.235v-3.49h-.093c-1.536 2.652-4.048 4.141-7.538 4.141-5.351 0-8.422-3.35-8.422-8.933v-16.471h6.515zM97.634 167.895v6.7h4.048v4.653h-4.048v13.819c0 1.303.558 1.628 2.652 1.628.279 0 .744-.047 1.396-.093v4.932c-1.303.046-2.513.093-3.49.093-6.235 0-7.072-2.094-7.072-5.397v-14.982h-3.35v-4.653h3.35v-6.7h6.514zM127.179 182.133h-6.374c-.372-2.466-1.815-3.257-4.42-3.257-2.466 0-3.955.605-3.955 2.419 0 1.675 3.164 2.233 6.281 2.838 7.165 1.349 9.213 3.815 9.213 7.305 0 6.049-4.932 8.561-10.981 8.561-7.305 0-11.772-3.304-11.772-8.561h6.7c0 2.001 1.21 3.629 5.351 3.629 2.605 0 4.187-1.07 4.187-2.559 0-1.628-2.187-2.187-6.7-3.024-5.769-1.024-8.654-3.21-8.654-7.259 0-4.885 3.629-8.282 10.004-8.282 7.444.001 10.841 3.165 11.12 8.19zM148.396 183.436c-.372-2.233-1.629-4.002-4.188-4.002-3.536 0-5.304 2.745-5.304 7.538 0 6.095 2.28 7.677 5.025 7.677 2.466 0 4.187-1.908 4.42-4.327h6.607c-.744 5.397-4.42 9.678-11.306 9.678-7.631 0-11.446-4.979-11.446-12.33 0-8.887 4.234-13.726 11.865-13.726 5.909 0 10.562 3.443 10.934 9.492h-6.607zM166.541 165.941v11.865h.093c1.117-2.42 4.048-3.862 7.165-3.862 5.165 0 8.608 3.304 8.608 8.096v17.309h-6.514v-15.494c0-2.978-1.442-4.42-4.234-4.42-2.978 0-5.118 2.047-5.118 5.537v14.377h-6.514v-33.407h6.514zM196.132 165.941v33.407h-6.514v-33.407h6.514zM223.398 194.742c0 2.419.512 3.257 1.442 3.629v.977h-7.026c-.326-.977-.558-1.861-.605-2.931-2.373 2.559-4.839 3.583-8.003 3.583-4.513 0-7.538-2.792-7.538-7.212 0-3.21 1.163-7.026 7.77-8.003l4.653-.698c2.42-.372 2.931-.837 2.931-2.094 0-1.721-1.07-2.838-4.281-2.838-2.419 0-3.769 1.07-4.001 3.443h-6.281c.512-5.211 2.978-8.654 10.888-8.654 6.374 0 10.05 2.699 10.05 6.979v13.819zm-6.374-4.373v-3.071c-1.117.698-2.14 1.024-4.653 1.396-2.606.372-4.188 1.303-4.188 3.676 0 1.814 1.21 2.978 3.025 2.978 2.884-.001 5.816-1.955 5.816-4.979zM252.571 182.04v17.309h-6.514v-15.68c0-2.745-1.489-4.234-4.234-4.234-2.978 0-5.118 2.047-5.118 5.537v14.377h-6.514v-24.753h6.235v3.629h.093c1.582-3.024 4.327-4.281 7.444-4.281 5.258 0 8.608 3.443 8.608 8.096zM282.209 165.941v33.407h-6.374v-3.118h-.093c-1.628 2.792-4.42 3.769-7.166 3.769-6.56 0-10.422-5.444-10.422-13.307 0-7.817 4.281-12.749 10.283-12.749 3.21 0 5.63 1.396 7.165 3.862h.093V165.94h6.514zm-6.235 21.589c0-4.978-1.861-7.956-5.63-7.956-3.49 0-5.49 2.745-5.49 7.538 0 4.28 2.001 7.537 5.351 7.537 3.582 0 5.769-2.792 5.769-7.119z"/></svg>